HIERARCHY
ROOT Hips
{
	OFFSET 0.000000 83.214638 0.000000
	CHANNELS 6 Xposition Yposition Zposition Xrotation Yrotation Zrotation
	JOINT Pelvis
	{
		OFFSET 0.000000 0.000000 0.000000
		CHANNELS 3 Xrotation Yrotation Zrotation
		JOINT LeftUpLeg
		{
			OFFSET 8.479700 -4.795502 -0.379100
			CHANNELS 3 Xrotation Yrotation Zrotation
			JOINT LeftLeg
			{
				OFFSET 0.024144 -32.555107 0.112900
				CHANNELS 3 Xrotation Yrotation Zrotation
				JOINT LeftFoot
				{
					OFFSET -0.024144 -32.638630 -3.012600
					CHANNELS 3 Xrotation Yrotation Zrotation
					JOINT LeftToeBase
					{
						OFFSET 0.970200 -13.225400 11.864200
						CHANNELS 3 Xrotation Yrotation Zrotation
						End Site
						{
							OFFSET 0.000000 12.319262 0.000000
						}
					}
					JOINT LFootTongue
					{
						OFFSET 1.142400 -1.059800 6.665200
						CHANNELS 3 Xrotation Yrotation Zrotation
						End Site
						{
							OFFSET 0.000000 12.319262 0.000000
						}
					}
				}
				JOINT LeftPantLeg
				{
					OFFSET 0.918482 -16.533964 -2.284700
					CHANNELS 3 Xrotation Yrotation Zrotation
					End Site
					{
						OFFSET 0.350399 24.744368 0.000000
					}
				}
			}
		}
		JOINT RightUpLeg
		{
			OFFSET -8.479700 -4.795502 -0.379100
			CHANNELS 3 Xrotation Yrotation Zrotation
			JOINT RightLeg
			{
				OFFSET -0.023144 -32.555092 0.112900
				CHANNELS 3 Xrotation Yrotation Zrotation
				JOINT RightFoot
				{
					OFFSET 0.023144 -32.638641 -3.012700
					CHANNELS 3 Xrotation Yrotation Zrotation
					JOINT RightToeBase
					{
						OFFSET -0.970200 -13.225400 11.864200
						CHANNELS 3 Xrotation Yrotation Zrotation
						End Site
						{
							OFFSET 0.000000 12.319244 0.000000
						}
					}
					JOINT RFootTongue
					{
						OFFSET -1.142200 -1.059800 6.665200
						CHANNELS 3 Xrotation Yrotation Zrotation
						End Site
						{
							OFFSET 0.000000 12.319243 0.000000
						}
					}
				}
				JOINT RightPantLeg
				{
					OFFSET -0.919482 -16.533978 -2.284800
					CHANNELS 3 Xrotation Yrotation Zrotation
					End Site
					{
						OFFSET -0.350400 24.744419 0.000000
					}
				}
			}
		}
	}
	JOINT Spine
	{
		OFFSET 0.000000 7.722000 1.166200
		CHANNELS 3 Xrotation Yrotation Zrotation
		JOINT Spine1
		{
			OFFSET 0.000000 12.024101 0.248800
			CHANNELS 3 Xrotation Yrotation Zrotation
			JOINT Spine2
			{
				OFFSET 0.000000 11.502998 -0.491200
				CHANNELS 3 Xrotation Yrotation Zrotation
				JOINT Neck
				{
					OFFSET 0.000000 18.430702 -3.123100
					CHANNELS 3 Xrotation Yrotation Zrotation
					JOINT Head
					{
						OFFSET 0.000000 9.051102 1.034000
						CHANNELS 3 Xrotation Yrotation Zrotation
						JOINT HairB
						{
							OFFSET 0.208400 24.786102 24.822300
							CHANNELS 3 Xrotation Yrotation Zrotation
							End Site
							{
								OFFSET 0.000000 32.263779 0.000000
							}
						}
						JOINT HairA
						{
							OFFSET -7.081100 24.428299 23.196600
							CHANNELS 3 Xrotation Yrotation Zrotation
							End Site
							{
								OFFSET 0.000000 32.263779 0.000000
							}
						}
						JOINT Hat
						{
							OFFSET 16.728800 15.048294 -15.439601
							CHANNELS 3 Xrotation Yrotation Zrotation
							End Site
							{
								OFFSET 0.000000 32.263779 0.000000
							}
						}
					}
				}
				JOINT LeftShoulder
				{
					OFFSET 6.197800 13.665199 -4.064700
					CHANNELS 3 Xrotation Yrotation Zrotation
					JOINT LeftArm
					{
						OFFSET 7.778100 -0.187103 -1.709300
						CHANNELS 3 Xrotation Yrotation Zrotation
						JOINT LeftForeArm
						{
							OFFSET 22.049376 0.000000 0.000000
							CHANNELS 3 Xrotation Yrotation Zrotation
							JOINT LeftHand
							{
								OFFSET 23.009392 0.000000 0.000000
								CHANNELS 3 Xrotation Yrotation Zrotation
								JOINT LeftHandThumb1
								{
									OFFSET 3.507191 -2.063065 3.133727
									CHANNELS 3 Xrotation Yrotation Zrotation
									JOINT LeftHandThumb2
									{
										OFFSET 3.101337 -1.790558 1.790558
										CHANNELS 3 Xrotation Yrotation Zrotation
										JOINT LeftHandThumb3
										{
											OFFSET 3.058640 -1.765907 1.765906
											CHANNELS 3 Xrotation Yrotation Zrotation
											End Site
											{
												OFFSET -0.415260 3.926476 -0.049563
											}
										}
									}
								}
								JOINT LeftHandIndex1
								{
									OFFSET 11.334419 -0.901459 3.706815
									CHANNELS 3 Xrotation Yrotation Zrotation
									JOINT LeftHandIndex2
									{
										OFFSET 3.283112 0.000000 0.000000
										CHANNELS 3 Xrotation Yrotation Zrotation
										JOINT LeftHandIndex3
										{
											OFFSET 3.323853 0.000000 0.000000
											CHANNELS 3 Xrotation Yrotation Zrotation
											End Site
											{
												OFFSET -1.135597 3.097809 0.402452
											}
										}
									}
								}
								JOINT LeftHandMiddle1
								{
									OFFSET 11.335861 0.000000 0.000000
									CHANNELS 3 Xrotation Yrotation Zrotation
									JOINT LeftHandMiddle2
									{
										OFFSET 3.410492 0.000000 0.000000
										CHANNELS 3 Xrotation Yrotation Zrotation
										JOINT LeftHandMiddle3
										{
											OFFSET 3.312172 0.000000 0.000000
											CHANNELS 3 Xrotation Yrotation Zrotation
											End Site
											{
												OFFSET -1.150200 3.080154 0.400270
											}
										}
									}
								}
								JOINT LeftHandRing1
								{
									OFFSET 11.514786 -0.013176 -3.003090
									CHANNELS 3 Xrotation Yrotation Zrotation
									JOINT LeftHandRing2
									{
										OFFSET 3.053307 0.000000 0.000000
										CHANNELS 3 Xrotation Yrotation Zrotation
										JOINT LeftHandRing3
										{
											OFFSET 3.295807 0.000000 0.000000
											CHANNELS 3 Xrotation Yrotation Zrotation
											End Site
											{
												OFFSET -1.281006 3.013344 0.375733
											}
										}
									}
								}
								JOINT LeftHandPinky1
								{
									OFFSET 10.518692 -0.960396 -5.730441
									CHANNELS 3 Xrotation Yrotation Zrotation
									JOINT LeftHandPinky2
									{
										OFFSET 2.861649 0.000000 0.000000
										CHANNELS 3 Xrotation Yrotation Zrotation
										JOINT LeftHandPinky3
										{
											OFFSET 2.863380 0.000000 0.000000
											CHANNELS 3 Xrotation Yrotation Zrotation
											End Site
											{
												OFFSET -0.843597 2.711159 0.369971
											}
										}
									}
								}
							}
							JOINT LSleeve
							{
								OFFSET 6.676277 -0.344902 -1.011730
								CHANNELS 3 Xrotation Yrotation Zrotation
								End Site
								{
									OFFSET 0.000000 14.885353 0.000000
								}
							}
						}
					}
				}
				JOINT RightShoulder
				{
					OFFSET -6.197800 13.665199 -4.064700
					CHANNELS 3 Xrotation Yrotation Zrotation
					JOINT RightArm
					{
						OFFSET -7.778100 -0.187103 -1.709300
						CHANNELS 3 Xrotation Yrotation Zrotation
						JOINT RightForeArm
						{
							OFFSET -22.049376 0.000000 0.000000
							CHANNELS 3 Xrotation Yrotation Zrotation
							JOINT RightHand
							{
								OFFSET -23.009392 0.000000 0.000000
								CHANNELS 3 Xrotation Yrotation Zrotation
								JOINT RightHandThumb1
								{
									OFFSET -3.507191 -2.063065 3.133727
									CHANNELS 3 Xrotation Yrotation Zrotation
									JOINT RightHandThumb2
									{
										OFFSET -3.101337 -1.790558 1.790558
										CHANNELS 3 Xrotation Yrotation Zrotation
										JOINT RightHandThumb3
										{
											OFFSET -3.058640 -1.765907 1.765906
											CHANNELS 3 Xrotation Yrotation Zrotation
											End Site
											{
												OFFSET 0.415260 3.926476 -0.049563
											}
										}
									}
								}
								JOINT RightHandIndex1
								{
									OFFSET -11.334419 -0.901459 3.706815
									CHANNELS 3 Xrotation Yrotation Zrotation
									JOINT RightHandIndex2
									{
										OFFSET -3.283112 0.000000 0.000000
										CHANNELS 3 Xrotation Yrotation Zrotation
										JOINT RightHandIndex3
										{
											OFFSET -3.323853 0.000000 0.000000
											CHANNELS 3 Xrotation Yrotation Zrotation
											End Site
											{
												OFFSET 1.135597 3.097809 0.402452
											}
										}
									}
								}
								JOINT RightHandMiddle1
								{
									OFFSET -11.335861 0.000000 0.000000
									CHANNELS 3 Xrotation Yrotation Zrotation
									JOINT RightHandMiddle2
									{
										OFFSET -3.410492 0.000000 0.000000
										CHANNELS 3 Xrotation Yrotation Zrotation
										JOINT RightHandMiddle3
										{
											OFFSET -3.312172 0.000000 0.000000
											CHANNELS 3 Xrotation Yrotation Zrotation
											End Site
											{
												OFFSET 1.150200 3.080154 0.400270
											}
										}
									}
								}
								JOINT RightHandRing1
								{
									OFFSET -11.514786 -0.013176 -3.003090
									CHANNELS 3 Xrotation Yrotation Zrotation
									JOINT RightHandRing2
									{
										OFFSET -3.053307 0.000000 0.000000
										CHANNELS 3 Xrotation Yrotation Zrotation
										JOINT RightHandRing3
										{
											OFFSET -3.295807 0.000000 0.000000
											CHANNELS 3 Xrotation Yrotation Zrotation
											End Site
											{
												OFFSET 1.281006 3.013344 0.375733
											}
										}
									}
								}
								JOINT RightHandPinky1
								{
									OFFSET -10.518692 -0.960396 -5.730441
									CHANNELS 3 Xrotation Yrotation Zrotation
									JOINT RightHandPinky2
									{
										OFFSET -2.861649 0.000000 0.000000
										CHANNELS 3 Xrotation Yrotation Zrotation
										JOINT RightHandPinky3
										{
											OFFSET -2.863380 0.000000 0.000000
											CHANNELS 3 Xrotation Yrotation Zrotation
											End Site
											{
												OFFSET 0.843597 2.711159 0.369971
											}
										}
									}
								}
							}
							JOINT RSleeve
							{
								OFFSET -6.676277 -0.344902 -1.011730
								CHANNELS 3 Xrotation Yrotation Zrotation
								End Site
								{
									OFFSET 0.000000 14.885353 0.000000
								}
							}
						}
					}
				}
				JOINT Backpack
				{
					OFFSET 0.000000 -2.471497 36.677502
					CHANNELS 3 Xrotation Yrotation Zrotation
					End Site
					{
						OFFSET 0.000000 20.427315 0.000000
					}
				}
				JOINT Hood
				{
					OFFSET 0.000000 18.754097 -10.431000
					CHANNELS 3 Xrotation Yrotation Zrotation
					JOINT Hood1
					{
						OFFSET 0.000000 -5.011002 -7.685901
						CHANNELS 3 Xrotation Yrotation Zrotation
						End Site
						{
							OFFSET 0.000000 9.175140 0.000000
						}
					}
				}
				JOINT LHoodieString
				{
					OFFSET 5.250500 16.397697 3.089900
					CHANNELS 3 Xrotation Yrotation Zrotation
					JOINT LHoodieString1
					{
						OFFSET 0.257700 -6.364304 3.694600
						CHANNELS 3 Xrotation Yrotation Zrotation
						JOINT LHoodieString2
						{
							OFFSET 0.000000 -9.643799 2.679100
							CHANNELS 3 Xrotation Yrotation Zrotation
							End Site
							{
								OFFSET 0.000000 10.009018 0.000000
							}
						}
					}
				}
				JOINT RHoodieString
				{
					OFFSET -5.250500 16.397697 3.089900
					CHANNELS 3 Xrotation Yrotation Zrotation
					JOINT RHoodieString1
					{
						OFFSET -0.257700 -6.364304 3.694600
						CHANNELS 3 Xrotation Yrotation Zrotation
						JOINT RHoodieString2
						{
							OFFSET 0.000000 -9.643799 2.679100
							CHANNELS 3 Xrotation Yrotation Zrotation
							End Site
							{
								OFFSET 0.000000 10.009018 0.000000
							}
						}
					}
				}
			}
			JOINT LBackpack_Strap
			{
				OFFSET 15.223200 -7.719803 -6.610900
				CHANNELS 3 Xrotation Yrotation Zrotation
				End Site
				{
					OFFSET 0.000000 16.040596 0.000000
				}
			}
			JOINT RBackpack_Strap
			{
				OFFSET -15.223000 -7.719803 -6.610900
				CHANNELS 3 Xrotation Yrotation Zrotation
				End Site
				{
					OFFSET 0.000000 16.040596 0.000000
				}
			}
		}
	}
	JOINT BoyFacialAnim_Joint
	{
		OFFSET 1.000000 -82.208099 -1.550900
		CHANNELS 3 Xrotation Yrotation Zrotation
		End Site
		{
			OFFSET 0.000000 30.012791 0.000000
		}
	}
}
MOTION
Frames: 4
Frame Time: 0.033333
0.018782 82.451057 0.246090 -3.753365 -5.223246 -3.509087 -0.000000 0.000000 0.000000 -11.794184 14.480635 10.861358 13.105415 1.996021 4.176080 1.435981 0.533044 -7.636515 0.000000 0.000000 0.000000 0.000000 0.000000 0.000000 0.000000 0.000001 -0.000001 1.330492 -10.341687 3.344467 5.908614 -9.742091 -3.275961 -2.956291 -1.620928 3.120377 0.000000 0.000000 0.000000 0.000000 0.000000 0.000000 -0.000000 -0.000001 0.000000 3.303573 1.522547 2.486445 1.148842 0.339457 1.558082 1.123074 0.357441 1.564046 5.626304 -0.075536 0.454683 -7.563349 1.375902 -0.080527 -0.000000 -0.000000 -0.000000 -0.000000 -0.000000 -0.000000 -0.000000 -0.000000 -0.000000 1.045501 -17.441247 -12.319450 3.917986 -19.988654 -69.764645 -0.000005 -1.459359 -0.000005 -33.230537 -1.360886 -6.192655 -0.661204 2.160177 4.832429 11.843458 25.423112 17.060067 0.000001 0.000001 0.000001 0.019864 -0.969577 -7.593514 0.267871 1.752894 -17.375728 -0.000003 0.000000 -0.000002 -0.076312 2.665781 -15.696830 0.268788 1.755804 -17.405530 0.000001 -0.000001 -0.000002 0.136910 3.641771 -21.133500 0.386844 2.095370 -20.917989 -0.000000 -0.000001 0.000003 0.928169 5.555690 -27.128069 0.268798 1.755843 -17.405880 -0.000001 0.000001 0.000003 0.000001 0.000000 -0.000000 1.201615 15.343774 14.711889 13.158864 27.555114 58.785150 -0.000008 6.693735 -0.000003 -20.179557 -0.511120 6.782584 -1.665257 -0.174477 -4.219023 12.710547 -29.825472 -16.131039 0.000002 0.000002 -0.000001 0.026758 1.260946 6.823131 0.213726 -1.396031 17.407062 -0.000001 0.000000 0.000002 -0.136230 -2.205116 14.998879 0.214443 -1.398338 17.436845 0.000001 0.000002 0.000004 0.030608 -3.075762 20.451036 0.308445 -1.668282 20.948494 -0.000001 0.000000 0.000002 0.740719 -4.889294 26.473166 0.214458 -1.398377 17.437237 0.000002 -0.000002 -0.000002 -0.000002 0.000001 -0.000001 -0.000000 0.000000 -0.000000 -0.000000 0.000000 -0.000000 -0.000000 0.000000 -0.000000 -0.000000 0.000000 -0.000000 -0.000000 0.000000 -0.000000 -0.000000 0.000000 -0.000000 -0.000000 0.000000 -0.000000 -0.000000 0.000000 -0.000000 -0.000000 0.000000 -0.000000 0.000000 0.000000 0.000000 0.000000 0.000000 0.000000 -0.000000 0.000000 0.000000 
0.040329 82.451668 0.291457 -3.712125 -5.186109 -3.530526 0.000000 -0.000000 -0.000000 -11.856284 14.481389 10.886069 13.203830 1.958416 4.174142 1.324771 0.532194 -7.659278 -0.000000 -0.000000 0.000000 -0.000000 -0.000000 0.000000 0.000000 -0.000001 -0.000000 1.409835 -10.344409 3.378999 5.775463 -9.801506 -3.277298 -2.934221 -1.614669 3.135135 0.000000 -0.000002 -0.000000 0.000000 -0.000002 -0.000000 -0.000001 0.000001 0.000000 3.303435 1.522590 2.491637 1.148842 0.335105 1.558082 1.123074 0.357441 1.564045 5.630751 -0.075536 0.441911 -7.449400 1.423249 -0.124376 -0.000000 -0.000000 0.000000 -0.000000 -0.000000 0.000000 -0.000000 -0.000000 0.000000 1.052095 -17.419298 -12.296939 3.941042 -20.026647 -69.739633 0.000001 -1.472037 -0.000011 -33.260897 -1.367952 -6.199653 -0.667853 2.091351 4.791836 11.856636 25.423661 17.017937 -0.000001 -0.000002 0.000002 0.041534 -0.949943 -7.569351 0.267490 1.751682 -17.363302 -0.000001 0.000000 -0.000002 -0.076666 2.658658 -15.628970 0.268778 1.755809 -17.405530 0.000000 -0.000001 -0.000000 0.135758 3.636583 -21.082158 0.386840 2.095369 -20.917984 -0.000000 0.000001 -0.000002 0.919387 5.539327 -27.095763 0.268791 1.755843 -17.405882 -0.000001 0.000001 -0.000000 0.000001 0.000000 0.000001 1.202766 15.305057 14.709306 13.193022 27.641385 58.710592 -0.000003 6.716935 0.000007 -20.202424 -0.514811 6.781378 -1.699483 -0.188771 -4.271278 12.723971 -29.825346 -16.093022 -0.000003 0.000002 0.000001 0.028086 1.285641 6.765274 0.214840 -1.399566 17.452518 -0.000002 -0.000000 0.000004 -0.139182 -2.184988 14.899714 0.214448 -1.398355 17.436839 -0.000000 0.000002 0.000000 0.023247 -3.051623 20.354833 0.308439 -1.668277 20.948480 -0.000001 -0.000001 0.000002 0.734939 -4.880503 26.346060 0.214456 -1.398385 17.437227 -0.000001 0.000001 0.000000 0.000001 0.000000 -0.000000 0.000000 -0.000000 0.000000 0.000000 -0.000000 0.000000 0.000000 -0.000000 0.000000 0.000000 -0.000000 0.000000 0.000000 -0.000000 0.000000 0.000000 -0.000000 0.000000 0.000000 -0.000000 0.000000 0.000000 -0.000000 0.000000 0.000000 -0.000000 0.000000 0.000000 -0.000000 0.000000 0.000000 -0.000000 0.000000 0.000000 -0.000000 -0.000000 
0.065814 82.455460 0.340921 -3.665759 -5.139493 -3.555167 0.000000 0.000000 0.000000 -11.931042 14.487205 10.920667 13.310198 1.901435 4.161101 1.225105 0.531295 -7.678028 0.000000 0.000001 0.000000 0.000000 0.000001 0.000000 -0.000000 -0.000001 0.000000 1.527720 -10.358420 3.420989 5.573792 -9.863529 -3.263808 -2.885829 -1.597341 3.134479 -0.000000 -0.000000 0.000000 -0.000000 -0.000000 0.000000 0.000000 -0.000000 0.000001 3.303298 1.522652 2.496841 1.148842 0.324699 1.558081 1.123073 0.347639 1.564045 5.643635 -0.061070 0.407093 -7.309913 1.537236 -0.228044 -0.000000 0.000000 0.000000 -0.000000 0.000000 0.000000 -0.000000 0.000000 0.000000 1.054370 -17.382787 -12.275072 3.981266 -20.106904 -69.678988 -0.000004 -1.500030 0.000005 -33.338529 -1.396459 -6.213219 -0.608800 2.013229 4.701975 11.847097 25.400688 17.102228 0.000001 -0.000001 -0.000001 0.071253 -0.918107 -7.565668 0.267284 1.751017 -17.356539 -0.000002 -0.000000 -0.000002 -0.063317 2.706106 -15.621925 0.268386 1.754550 -17.392704 0.000001 -0.000000 -0.000003 0.134447 3.630601 -21.023047 0.386843 2.095369 -20.917985 -0.000002 -0.000001 0.000003 0.919873 5.540382 -27.090417 0.268794 1.755846 -17.405868 -0.000001 -0.000001 0.000001 0.000001 0.000000 0.000000 1.204105 15.269301 14.706929 13.232918 27.766256 58.607121 -0.000002 6.748850 0.000010 -20.248789 -0.509488 6.778764 -1.729403 -0.132349 -4.332810 12.753088 -29.834748 -16.008379 0.000001 0.000004 0.000004 0.033142 1.350860 6.594265 0.211258 -1.388165 17.305831 0.000001 -0.000000 0.000002 -0.138647 -2.163282 14.641094 0.215041 -1.400237 17.461227 0.000001 0.000000 -0.000000 0.008712 -3.004163 20.182381 0.307487 -1.665773 20.915567 -0.000000 -0.000001 -0.000002 0.722663 -4.861701 26.074870 0.214461 -1.398382 17.437246 -0.000000 -0.000001 -0.000003 -0.000003 -0.000001 0.000001 -0.000000 0.000000 0.000000 -0.000000 0.000000 0.000000 -0.000000 0.000000 0.000000 -0.000000 0.000000 0.000000 -0.000000 0.000000 0.000000 -0.000000 -0.000000 0.000000 -0.000000 0.000000 0.000000 -0.000000 0.000000 0.000000 -0.000000 -0.000000 0.000000 -0.000000 -0.000000 0.000000 -0.000000 -0.000000 0.000000 0.000000 0.000000 0.000000 
0.094506 82.462959 0.388641 -3.611272 -5.081360 -3.589214 0.000000 0.000000 -0.000000 -12.028250 14.503328 10.970147 13.418463 1.820600 4.144934 1.154320 0.530374 -7.694351 -0.000000 0.000001 0.000000 -0.000000 0.000001 0.000000 0.000000 -0.000001 -0.000000 1.695396 -10.377908 3.488487 5.271150 -9.939285 -3.243391 -2.793775 -1.564695 3.114884 0.000000 -0.000002 -0.000000 0.000000 -0.000002 -0.000000 -0.000000 0.000000 -0.000000 3.303173 1.522757 2.501491 1.152874 0.314751 1.558082 1.127079 0.337701 1.564045 5.665895 -0.027148 0.344617 -7.165367 1.743891 -0.408729 0.000000 -0.000000 0.000000 0.000000 -0.000000 0.000000 0.000000 -0.000000 0.000000 1.058388 -17.339412 -12.239355 4.025396 -20.241961 -69.583563 0.000002 -1.553582 0.000003 -33.454458 -1.434499 -6.219058 -0.788312 1.890326 4.749667 11.846686 25.396564 17.099809 0.000002 -0.000000 0.000000 0.070434 -0.966170 -7.280889 0.267360 1.751268 -17.359086 -0.000000 0.000000 -0.000002 -0.063491 2.682333 -15.344828 0.268564 1.755115 -17.398413 0.000002 0.000000 -0.000003 0.122363 3.591370 -20.850477 0.386837 2.095365 -20.917992 -0.000002 -0.000001 -0.000006 0.884008 5.495306 -26.953055 0.268324 1.754356 -17.390649 0.000001 0.000000 0.000003 -0.000003 -0.000000 0.000000 1.202770 15.245054 14.725365 13.289828 27.936999 58.442398 -0.000001 6.798134 -0.000004 -20.314345 -0.461715 6.773680 -1.704987 -0.051491 -4.346302 12.780518 -29.843528 -15.928723 0.000001 0.000000 0.000001 0.033147 1.403977 6.437014 0.214041 -1.397018 17.419685 -0.000003 -0.000000 0.000003 -0.131946 -2.168287 14.414459 0.214792 -1.399428 17.450676 0.000006 -0.000000 0.000001 -0.008722 -2.948713 20.025623 0.306326 -1.662745 20.875677 -0.000001 0.000000 0.000000 0.706120 -4.833458 25.821557 0.214455 -1.398386 17.437232 0.000003 -0.000000 0.000002 0.000000 -0.000000 0.000001 0.000000 -0.000000 0.000000 0.000000 -0.000000 0.000000 0.000000 -0.000000 0.000000 0.000000 -0.000000 0.000000 0.000000 -0.000000 0.000000 0.000000 -0.000000 0.000000 0.000000 -0.000000 0.000000 0.000000 -0.000000 0.000000 0.000000 -0.000000 0.000000 -0.000000 -0.000000 0.000000 -0.000000 -0.000000 0.000000 0.000000 0.000000 -0.000000 
